# xmcd
#
# Track frame offsets:
#	150
#	21195
#	41534
#	59102
#	74524
#	88693
#	102977
#	121502
#	136671
#	154451
#	175298
#	187661
#	202982
#
# Disc length: 2927 seconds
#
# Revision: 2
# Processed by: cddbd v1.4PL0 Copyright (c) Steve Scherf et al.
# Submitted via: audiograbber 1.82.01
#
DISCID=ae0b6d0d
DTITLE=Various Artist - Today's Country Hits - Disc 1
DYEAR=2002
DGENRE=Country
TTITLE0=Alabama - God Must Of Spent A Little More Time...
TTITLE1=Brooks and Dunn - Only In America
TTITLE2=Clint Black - Nothing But Tail Lights
TTITLE3=Collin Raye - Little Red Rodeo
TTITLE4=Faith Hill - The Way You Love Me
TTITLE5=Garth Brooks and Steve Wariner - Katie Wants A Fast One
TTITLE6=Jessica Andrews - Who I Am
TTITLE7=Montgomery Gentry - Lonely And Gone
TTITLE8=Phil Vassar - Just Another Day In Paradise
TTITLE9=Shania Twain - That Don't Impress Me Much
TTITLE10=Toby Keith - I'm Just Talking About Tonight
TTITLE11=Trick Pony - Just What I Do
TTITLE12=Ty Herndon - What Mattered Most
EXTD=
EXTT0=
EXTT1=
EXTT2=
EXTT3=
EXTT4=
EXTT5=
EXTT6=
EXTT7=
EXTT8=
EXTT9=
EXTT10=
EXTT11=
EXTT12=
PLAYORDER=
